<?xml version="1.0" standalone="no"?>
<!DOCTYPE svg PUBLIC "-//W3C//DTD SVG 20010904//EN"
 "http://www.w3.org/TR/2001/REC-SVG-20010904/DTD/svg10.dtd">
<svg version="1.0" xmlns="http://www.w3.org/2000/svg"
 width="91.000000pt" height="109.000000pt" viewBox="0 0 91.000000 109.000000"
 preserveAspectRatio="xMidYMid meet">

<g transform="translate(0.000000,109.000000) scale(0.100000,-0.100000)"
fill="#000000" stroke="none">
<path d="M40 825 c0 -231 1 -245 18 -236 20 11 328 222 357 245 19 14 14 15
-65 16 -81 0 -88 -2 -137 -35 -29 -19 -57 -35 -63 -35 -7 0 -10 31 -8 93 l3
92 307 3 308 2 0 -32 c-1 -31 -10 -39 -140 -128 -77 -52 -239 -162 -360 -245
l-220 -150 2 -105 3 -105 407 -3 408 -2 0 241 c0 137 -4 239 -9 237 -21 -8
-361 -244 -361 -250 0 -5 32 -8 70 -8 59 0 81 5 130 30 33 17 62 30 65 30 3 0
4 -39 3 -87 l-3 -88 -305 0 -305 0 0 30 c0 27 23 45 358 274 l357 244 0 109 0
108 -410 0 -410 0 0 -245z"/>
<path d="M40 140 c0 -5 11 -10 25 -10 31 0 31 -8 0 -50 -13 -18 -22 -37 -19
-41 3 -5 23 -9 45 -9 28 0 39 4 39 15 0 9 -10 15 -26 15 l-25 0 25 33 c37 48
33 57 -19 57 -25 0 -45 -4 -45 -10z"/>
<path d="M150 90 c0 -45 3 -61 13 -57 7 2 12 23 12 57 0 34 -5 55 -12 58 -10
3 -13 -13 -13 -58z"/>
<path d="M200 90 c0 -58 12 -80 23 -41 3 12 15 21 33 23 21 2 30 9 32 26 5 33
-15 52 -54 52 l-34 0 0 -60z m65 20 c0 -8 -10 -16 -22 -18 -22 -3 -32 16 -16
32 12 11 38 2 38 -14z"/>
<path d="M360 105 c-11 -26 -20 -53 -20 -61 0 -19 19 -18 26 1 8 20 44 19 60
-2 23 -32 27 -4 7 49 -27 70 -47 73 -73 13z m39 -24 c-15 -5 -22 6 -14 19 6 9
10 9 16 -1 5 -8 4 -15 -2 -18z"/>
<path d="M460 138 c0 -7 6 -33 14 -58 17 -56 41 -64 54 -18 l10 33 12 -33 c17
-45 40 -38 56 18 17 56 17 73 2 68 -6 -2 -16 -22 -23 -43 l-10 -39 -13 42 c-7
23 -17 42 -22 42 -5 0 -15 -19 -22 -42 l-13 -42 -10 39 c-11 37 -35 61 -35 33z"/>
<path d="M655 113 c-24 -56 -29 -83 -16 -83 6 0 14 7 17 15 4 8 16 15 29 15
13 0 25 -7 29 -15 7 -19 26 -20 26 -1 0 29 -40 106 -55 106 -8 0 -22 -17 -30
-37z m45 -25 c0 -5 -7 -8 -15 -8 -17 0 -18 2 -9 25 5 13 8 14 15 3 5 -7 9 -16
9 -20z"/>
<path d="M740 147 c0 -2 11 -18 25 -37 14 -19 25 -44 25 -57 0 -13 5 -23 10
-23 6 0 10 9 10 21 0 11 11 37 25 57 29 42 14 60 -17 22 l-19 -23 -15 21 c-12
18 -44 31 -44 19z"/>
</g>
</svg>
